<svg width="119" height="96" viewBox="0 0 119 96" fill="none" xmlns="http://www.w3.org/2000/svg">
<g clip-path="url(#clip0)">
<path d="M92.1374 24.3562C90.9959 23.785 89.6303 23.9083 88.6094 24.6742L47.3261 55.6364L6.04296 24.674C5.02211 23.9083 3.65649 23.785 2.51503 24.356C1.37356 24.9265 0.652344 26.0931 0.652344 27.3693V92.3265C0.652344 94.1871 2.16104 95.6956 4.02148 95.6956H90.6309C92.4914 95.6956 94 94.1871 94 92.3265V27.3696C93.9998 26.0933 93.2788 24.9267 92.1374 24.3562Z" fill="#9DB6FF"/>
<path d="M92.1375 24.3563C90.996 23.7851 89.6304 23.9084 88.6095 24.6743L47.3262 55.6364V95.6959H90.631C92.4914 95.6959 94.0001 94.1874 94.0001 92.3268V27.3696C93.9999 26.0934 93.2789 24.9268 92.1375 24.3563Z" fill="#6285ED"/>
<path d="M93.8269 26.3041C93.368 24.9283 92.0806 24.0002 90.6307 24.0002H4.02105C2.57098 24.0002 1.28352 24.9283 0.824869 26.3041C0.366442 27.6798 0.839694 29.1946 1.99957 30.0647L45.3042 62.5431C45.903 62.9924 46.6141 63.217 47.3257 63.217C48.0368 63.217 48.7479 62.9924 49.3471 62.5431L92.652 30.0647C93.8121 29.1948 94.2853 27.6798 93.8269 26.3041Z" fill="#7595F5"/>
<path d="M93.8272 26.3041C93.3683 24.9283 92.0808 24.0002 90.631 24.0002H47.3262V63.217C48.0373 63.217 48.7484 62.9924 49.3477 62.5431L92.6525 30.0647C93.8124 29.1948 94.2856 27.6798 93.8272 26.3041Z" fill="#3251AD"/>
</g>
<path d="M95 0C81.7665 0 71 10.7663 71 24C71 37.2337 81.7665 47.9998 95 47.9998C108.234 47.9998 119 37.2337 119 24C119 10.7663 108.234 0 95 0Z" fill="#EE1C26"/>
<path d="M84.3335 23.7102L91.3481 30.8963C91.9161 31.4782 92.8681 31.4205 93.3618 30.7744L105.667 14.6667" stroke="white" stroke-width="4" stroke-linecap="round"/>
<defs>
<clipPath id="clip0">
<rect width="94.0001" height="72" fill="white" transform="translate(0 24)"/>
</clipPath>
</defs>
</svg>
