<svg width="16" height="17" viewBox="0 0 16 17" fill="none" xmlns="http://www.w3.org/2000/svg">
<path d="M7.70401 9.73541C9.35236 9.73541 10.6934 8.39454 10.6934 6.7464C10.6934 5.09825 9.35236 3.75742 7.70401 3.75742C6.05565 3.75742 4.7146 5.09825 4.7146 6.7464C4.7146 8.39454 6.05565 9.73541 7.70401 9.73541ZM7.70401 4.82578C8.76319 4.82578 9.6249 5.68739 9.6249 6.7464C9.6249 7.80543 8.76322 8.66704 7.70401 8.66704C6.64479 8.66704 5.78311 7.80543 5.78311 6.7464C5.78311 5.68739 6.64483 4.82578 7.70401 4.82578Z" fill="white" stroke="white" stroke-width="0.5"/>
<path d="M4.44737 12.1172C5.25712 13.2134 4.9318 12.7871 7.26418 16.1171C7.47617 16.4209 7.92697 16.4223 8.14018 16.1175C10.4831 12.7717 10.1607 13.1955 10.9573 12.1171C11.7642 11.0247 12.5986 9.89506 13.0559 8.57132C13.7177 6.65509 13.4316 4.75909 12.2505 3.23254C12.2504 3.23254 12.2504 3.23251 12.2504 3.23251C11.1684 1.83458 9.46819 1 7.70234 1C5.93648 1 4.23627 1.83458 3.15426 3.23258C1.97309 4.75912 1.68702 6.65516 2.34885 8.57139C2.80603 9.8951 3.64047 11.0247 4.44737 12.1172ZM3.99931 3.88637C4.8804 2.74801 6.26473 2.06837 7.70234 2.06837C9.13995 2.06837 10.5243 2.74801 11.4054 3.88637L11.4053 3.88633C12.3587 5.11839 12.5861 6.6584 12.0459 8.22263C11.642 9.39186 10.857 10.4546 10.0978 11.4824C9.50669 12.2826 9.6836 12.0379 7.70234 14.8779C5.72314 12.0407 5.8978 12.2824 5.30688 11.4824C4.5477 10.4546 3.76267 9.39183 3.35881 8.22263C2.81857 6.65837 3.04602 5.11839 3.99931 3.88637Z" fill="white" stroke="white" stroke-width="0.5"/>
</svg>
