<svg width="32" height="32" viewBox="0 0 32 32" fill="none" xmlns="http://www.w3.org/2000/svg">
<g clip-path="url(#clip0)">
<path d="M27.3135 4.6865C21.0648 -1.56219 10.9338 -1.56219 4.68644 4.68663C-1.56219 10.9352 -1.56219 21.0662 4.68669 27.3136C10.9338 33.5622 21.0648 33.5622 27.3135 27.3134C33.5622 21.0662 33.5622 10.9353 27.3135 4.6865ZM25.428 25.4277C20.2206 30.6351 11.7782 30.6351 6.57231 25.428C1.36494 20.2218 1.36494 11.7794 6.57219 6.57219C11.7782 1.36487 20.2206 1.36487 25.4279 6.57219C30.6351 11.7795 30.6351 20.2218 25.428 25.4277Z" fill="#B22222"/>
<path d="M16.0013 5.33398C15.2649 5.33398 14.668 5.93092 14.668 6.6673V20.0006C14.668 20.737 15.2649 21.3339 16.0013 21.3339C16.7377 21.3339 17.3346 20.737 17.3346 20.0006V6.6673C17.3346 5.93092 16.7377 5.33398 16.0013 5.33398Z" fill="#B22222"/>
<path d="M16.0013 24C15.2653 24 14.668 24.5973 14.668 25.3333C14.668 26.0693 15.2653 26.6666 16.0013 26.6666C16.7373 26.6666 17.3346 26.0693 17.3346 25.3333C17.3346 24.5973 16.7373 24 16.0013 24Z" fill="#B22222"/>
</g>
<defs>
<clipPath id="clip0">
<rect width="32" height="32" fill="white"/>
</clipPath>
</defs>
</svg>
