<svg xmlns="http://www.w3.org/2000/svg" width="32" height="32" viewBox="0 0 32 32"><g transform="translate(-1253 -826.999)"><circle cx="16" cy="16" r="16" transform="translate(1253 826.999)" fill="#b2b2b2"/><path d="M17.622,1.984a2.278,2.278,0,0,0-1.6-1.606A53.365,53.365,0,0,0,9,0,53.583,53.583,0,0,0,1.964.378a2.261,2.261,0,0,0-1.6,1.606A24.183,24.183,0,0,0,0,6.341,23.544,23.544,0,0,0,.378,10.7a2.278,2.278,0,0,0,1.6,1.606A53.365,53.365,0,0,0,9,12.682a53.583,53.583,0,0,0,7.036-.378,2.261,2.261,0,0,0,1.6-1.606A24.183,24.183,0,0,0,18,6.341,23.544,23.544,0,0,0,17.622,1.984ZM7.159,9.02V3.661l4.7,2.68Z" transform="translate(1260 836.999)" fill="#fff"/></g></svg>