<svg width="32" height="32" viewBox="0 0 32 32" fill="none" xmlns="http://www.w3.org/2000/svg">
<path d="M16 32.001C24.8366 32.001 32 24.8376 32 16.001C32 7.16448 24.8366 0.0010376 16 0.0010376C7.16344 0.0010376 0 7.16448 0 16.001C0 24.8376 7.16344 32.001 16 32.001Z" fill="#4167B2"/>
<path fill-rule="evenodd" clip-rule="evenodd" d="M17.422 24.001V16.712H19.911L20.267 13.868H17.422V12.09C17.422 11.29 17.689 10.668 18.844 10.668H20.355V8.08999C20 8.08999 19.111 8.00099 18.133 8.00099C17.6383 7.96818 17.1423 8.04299 16.6793 8.22026C16.2163 8.39753 15.7972 8.67304 15.4508 9.02783C15.1045 9.38262 14.8392 9.80825 14.6731 10.2754C14.5071 10.7426 14.4443 11.2402 14.489 11.734V13.868H12V16.712H14.489V24.001H17.422Z" fill="white"/>
</svg>
