<svg width="40" height="40" viewBox="0 0 40 40" fill="none" xmlns="http://www.w3.org/2000/svg">
<g clip-path="url(#clip0)">
<path d="M16.4844 32.9688C7.39484 32.9688 0 25.5739 0 16.4844C0 7.39484 7.39484 0 16.4844 0C25.5739 0 32.9687 7.39484 32.9687 16.4844C32.9687 25.5739 25.5739 32.9688 16.4844 32.9688ZM16.4844 3.125C9.11797 3.125 3.125 9.11797 3.125 16.4844C3.125 23.8508 9.11797 29.8438 16.4844 29.8438C23.8508 29.8438 29.8437 23.8508 29.8437 16.4844C29.8437 9.11797 23.8508 3.125 16.4844 3.125ZM16.6343 17.1875C13.9204 17.1875 11.7124 14.9795 11.7124 12.2656C11.7124 9.55172 13.9204 7.34375 16.6343 7.34375C19.3482 7.34375 21.5562 9.55172 21.5562 12.2656C21.5562 14.9795 19.3483 17.1875 16.6343 17.1875ZM16.6343 10.4688C15.6435 10.4688 14.8374 11.2748 14.8374 12.2656C14.8374 13.2564 15.6435 14.0625 16.6343 14.0625C17.6251 14.0625 18.4312 13.2564 18.4312 12.2656C18.4312 11.2748 17.6252 10.4688 16.6343 10.4688ZM21.4052 25.5473C20.7112 25.5473 20.0777 25.0816 19.8943 24.3787C19.5338 22.9966 18.2766 22.0312 16.837 22.0312H15.963C14.5234 22.0312 13.2661 22.9966 12.9055 24.3787C12.6877 25.2138 11.8342 25.7139 10.9992 25.4963C10.1642 25.2785 9.66391 24.425 9.88172 23.5901C10.6011 20.8323 13.1018 18.9063 15.963 18.9063H16.837C19.6981 18.9063 22.1988 20.8323 22.9182 23.5901C23.136 24.4251 22.6357 25.2785 21.8007 25.4963C21.6684 25.5308 21.5357 25.5473 21.4052 25.5473ZM39.5455 39.5393C40.154 38.9274 40.1512 37.9381 39.5393 37.3296L32.508 30.3374C31.8962 29.7289 30.9069 29.7318 30.2984 30.3436C29.6898 30.9555 29.6927 31.9448 30.3045 32.5533L37.3358 39.5455C37.6405 39.8487 38.039 40 38.4375 40C38.8387 40 39.2401 39.8462 39.5455 39.5393Z" fill="#888888"/>
</g>
<defs>
<clipPath id="clip0">
<rect width="40" height="40" fill="white"/>
</clipPath>
</defs>
</svg>
