<svg xmlns="http://www.w3.org/2000/svg" width="32" height="32" viewBox="0 0 32 32"><g transform="translate(-111.977 -12.956)"><circle cx="16" cy="16" r="16" transform="translate(111.977 12.956)" fill="#b2b2b2"/><g transform="translate(10 17)"><path d="M111.222,9.927h3.08v10h-3.08Zm1.541-4.971a1.8,1.8,0,1,1-1.786,1.8,1.794,1.794,0,0,1,1.786-1.8" transform="translate(0 0)" fill="#fff"/><path d="M120.1,13.316h2.95V14.67h.042A3.234,3.234,0,0,1,126,13.07c3.115,0,3.691,2.05,3.691,4.717v5.431h-3.077V18.4c0-1.148-.02-2.626-1.6-2.626-1.6,0-1.846,1.252-1.846,2.544v4.9H120.1Z" transform="translate(-3.715 -3.29)" fill="#fff"/></g></g></svg>