<svg width="18" height="18" viewBox="0 0 18 18" fill="none" xmlns="http://www.w3.org/2000/svg">
<path d="M8.99985 17.0002C13.418 17.0002 16.9997 13.4185 16.9997 9.00031C16.9997 4.58211 13.418 1.00046 8.99985 1.00046C4.58165 1.00046 1 4.58211 1 9.00031C1 13.4185 4.58165 17.0002 8.99985 17.0002Z" stroke="#999999" stroke-width="1.5" stroke-miterlimit="10" stroke-linecap="round"/>
<path d="M8.99988 1.00046C8.99988 1.00046 11.8798 2.31472 11.8798 9.00031C11.8798 15.6859 8.99988 17.0002 8.99988 17.0002" stroke="#999999" stroke-width="1.5" stroke-linecap="round" stroke-linejoin="round"/>
<path d="M9.00183 1C9.00183 1 6.12189 2.31426 6.12189 8.99985C6.12189 15.6854 9.00183 16.9997 9.00183 16.9997" stroke="#999999" stroke-width="1.5" stroke-linecap="round" stroke-linejoin="round"/>
<path d="M16.2229 5.57849C15.0349 6.36476 12.8223 7.24075 8.84013 7.24075C5.11563 7.24075 2.94196 6.47447 1.70312 5.7322" stroke="#999999" stroke-width="1.5" stroke-miterlimit="10" stroke-linecap="round"/>
<path d="M16.9065 9.55713C15.9882 10.4091 13.7637 11.7474 8.84147 11.7474C4.47184 11.7474 2.23474 10.6937 1.14276 9.86169" stroke="#999999" stroke-width="1.5" stroke-linecap="round" stroke-linejoin="round"/>
</svg>
