<svg width="32" height="32" viewBox="0 0 32 32" fill="none" xmlns="http://www.w3.org/2000/svg">
<path d="M16 32C24.8366 32 32 24.8366 32 16C32 7.16344 24.8366 0 16 0C7.16344 0 0 7.16344 0 16C0 24.8366 7.16344 32 16 32Z" fill="#B2B2B2"/>
<path fill-rule="evenodd" clip-rule="evenodd" d="M15.9999 9.42206C17.0674 9.38202 18.1363 9.41175 19.1999 9.51106C19.7159 9.50473 20.2284 9.5953 20.7109 9.77806C21.3767 10.0883 21.9117 10.6233 22.2219 11.2891C22.4047 11.7716 22.4953 12.2841 22.4889 12.8001C22.4889 13.6001 22.5779 13.8671 22.5779 16.0001C22.618 17.0675 22.5883 18.1365 22.4889 19.2001C22.4953 19.716 22.4047 20.2285 22.2219 20.7111C21.9117 21.3768 21.3767 21.9118 20.7109 22.2221C20.2284 22.4048 19.7159 22.4954 19.1999 22.4891C18.3999 22.4891 18.1329 22.5781 15.9999 22.5781C14.9325 22.6181 13.8635 22.5884 12.7999 22.4891C12.284 22.4954 11.7715 22.4048 11.2889 22.2221C10.6232 21.9118 10.0882 21.3768 9.77794 20.7111C9.59518 20.2285 9.50461 19.716 9.51094 19.2001C9.51094 18.4001 9.42194 18.1331 9.42194 16.0001C9.3819 14.9326 9.41163 13.8637 9.51094 12.8001C9.50461 12.2841 9.59518 11.7716 9.77794 11.2891C9.93302 10.9594 10.1434 10.6587 10.3999 10.4001C10.6083 10.0891 10.9254 9.86721 11.2889 9.77806C11.7715 9.5953 12.284 9.50473 12.7999 9.51106C13.8635 9.41175 14.9325 9.38202 15.9999 9.42206ZM15.9999 8.00006C14.9028 7.96096 13.8043 7.99069 12.7109 8.08906C12.0431 8.08746 11.3806 8.20776 10.7559 8.44406C10.2166 8.62005 9.72838 8.92524 9.33394 9.33306C8.92562 9.72768 8.62007 10.2162 8.44394 10.7561C8.16511 11.3681 8.0431 12.04 8.08894 12.7111C7.99056 13.8045 7.96084 14.9029 7.99994 16.0001C7.96084 17.0972 7.99056 18.1957 8.08894 19.2891C8.08753 19.9573 8.20818 20.6202 8.44494 21.2451C8.62092 21.7844 8.92612 22.2726 9.33394 22.6671C9.72838 23.0749 10.2166 23.3801 10.7559 23.5561C11.3808 23.7928 12.0437 23.9135 12.7119 23.9121C13.805 24.0101 14.9032 24.0395 15.9999 24.0001C17.0971 24.0392 18.1955 24.0094 19.2889 23.9111C19.9572 23.9125 20.6201 23.7918 21.2449 23.5551C21.7803 23.3706 22.2667 23.0666 22.6671 22.6662C23.0675 22.2658 23.3715 21.7795 23.5559 21.2441C23.7927 20.6192 23.9133 19.9563 23.9119 19.2881C23.9109 18.4001 23.9999 18.1331 23.9999 16.0001C24.039 14.9029 24.0093 13.8045 23.9109 12.7111C23.9123 12.0428 23.7917 11.38 23.5549 10.7551C23.379 10.2157 23.0738 9.72751 22.6659 9.33306C22.2715 8.92524 21.7833 8.62005 21.2439 8.44406C20.6193 8.20776 19.9568 8.08746 19.2889 8.08906C18.1955 7.99069 17.0971 7.96096 15.9999 8.00006ZM15.9999 11.9111C15.4605 11.9021 14.9248 12.0018 14.4247 12.2041C13.9245 12.4065 13.4702 12.7073 13.0887 13.0888C12.7072 13.4703 12.4063 13.9246 12.204 14.4248C12.0017 14.9249 11.902 15.4606 11.9109 16.0001C11.9109 16.8088 12.1508 17.5994 12.6001 18.2718C13.0494 18.9442 13.688 19.4683 14.4351 19.7778C15.1823 20.0873 16.0045 20.1683 16.7977 20.0105C17.5909 19.8527 18.3194 19.4633 18.8913 18.8914C19.4632 18.3196 19.8526 17.591 20.0104 16.7978C20.1681 16.0046 20.0872 15.1824 19.7777 14.4353C19.4682 13.6881 18.9441 13.0495 18.2717 12.6002C17.5992 12.1509 16.8087 11.9111 15.9999 11.9111ZM15.9999 18.6671C15.6479 18.6736 15.2982 18.609 14.9717 18.4773C14.6452 18.3456 14.3485 18.1494 14.0996 17.9004C13.8506 17.6515 13.6544 17.3549 13.5227 17.0283C13.391 16.7018 13.3264 16.3521 13.3329 16.0001C13.3264 15.648 13.391 15.2983 13.5227 14.9718C13.6544 14.6453 13.8506 14.3487 14.0996 14.0997C14.3485 13.8507 14.6452 13.6545 14.9717 13.5228C15.2982 13.3911 15.6479 13.3266 15.9999 13.3331C16.352 13.3266 16.7017 13.3911 17.0282 13.5228C17.3547 13.6545 17.6513 13.8507 17.9003 14.0997C18.1493 14.3487 18.3455 14.6453 18.4772 14.9718C18.6089 15.2983 18.6735 15.648 18.6669 16.0001C18.6735 16.3521 18.6089 16.7018 18.4772 17.0283C18.3455 17.3549 18.1493 17.6515 17.9003 17.9004C17.6513 18.1494 17.3547 18.3456 17.0282 18.4773C16.7017 18.609 16.352 18.6736 15.9999 18.6671ZM20.2669 10.7561C20.0735 10.7561 19.8844 10.8134 19.7236 10.9209C19.5628 11.0283 19.4374 11.1811 19.3634 11.3598C19.2894 11.5385 19.27 11.7351 19.3077 11.9249C19.3455 12.1146 19.4386 12.2888 19.5754 12.4256C19.7122 12.5624 19.8864 12.6555 20.0761 12.6933C20.2659 12.731 20.4625 12.7116 20.6412 12.6376C20.8199 12.5636 20.9727 12.4382 21.0801 12.2774C21.1876 12.1166 21.2449 11.9275 21.2449 11.7341C21.2429 11.4753 21.1391 11.2278 20.9562 11.0448C20.7732 10.8619 20.5257 10.7582 20.2669 10.7561Z" fill="white"/>
</svg>
