<svg width="16" height="16" viewBox="0 0 16 16" fill="none" xmlns="http://www.w3.org/2000/svg">
<path d="M14.4167 3.91667H10.9167V1.58333C10.9167 1.26133 10.6553 1 10.3333 1H5.66667C5.34467 1 5.08333 1.26133 5.08333 1.58333V3.91667H1.58333C1.26133 3.91667 1 4.178 1 4.5V14.4167C1 14.7387 1.26133 15 1.58333 15H14.4167C14.7387 15 15 14.7387 15 14.4167V4.5C15 4.178 14.7387 3.91667 14.4167 3.91667ZM6.25 2.16667H9.75V3.91667H6.25V2.16667ZM13.8333 5.08333V8H10.0417V6.83333C10.0417 6.51133 9.78033 6.25 9.45833 6.25H6.54167C6.21967 6.25 5.95833 6.51133 5.95833 6.83333V8H2.16667V5.08333H13.8333ZM7.125 7.41667H8.875V8.875C8.875 9.35736 8.48236 9.75 8 9.75C7.51764 9.75 7.125 9.35736 7.125 8.875V7.41667ZM2.16667 13.8333V9.16667H5.98169C6.12396 10.1546 6.97361 10.9167 8 10.9167C9.02639 10.9167 9.87604 10.1546 10.0183 9.16667H13.8333V13.8333H2.16667Z" fill="white" stroke="white" stroke-width="0.3"/>
</svg>
