<svg width="32" height="32" viewBox="0 0 32 32" fill="none" xmlns="http://www.w3.org/2000/svg">
<path d="M16 32C24.8366 32 32 24.8366 32 16C32 7.16344 24.8366 0 16 0C7.16344 0 0 7.16344 0 16C0 24.8366 7.16344 32 16 32Z" fill="#B2B2B2"/>
<path d="M16.0071 8.00001C14.1423 7.99679 12.335 8.64562 10.8981 9.83419C9.46119 11.0228 8.485 12.6763 8.1385 14.5086C7.79199 16.3409 8.09698 18.2367 9.00066 19.8679C9.90435 21.4991 11.3499 22.7631 13.0871 23.441C12.9803 22.6774 12.989 21.902 13.1131 21.141C13.2581 20.516 14.0491 17.167 14.0491 17.167C13.8881 16.7933 13.8074 16.3899 13.8121 15.983C13.8121 14.871 14.4581 14.042 15.2621 14.042C15.4062 14.0386 15.5494 14.0665 15.6818 14.1236C15.8142 14.1808 15.9327 14.2659 16.0291 14.3732C16.1255 14.4804 16.1976 14.6072 16.2404 14.745C16.2832 14.8827 16.2957 15.028 16.2771 15.171C16.1329 16.0767 15.91 16.968 15.6111 17.835C15.5661 18.0118 15.5634 18.1966 15.603 18.3746C15.6427 18.5526 15.7237 18.7188 15.8394 18.8597C15.9551 19.0006 16.1024 19.1124 16.2692 19.1859C16.4361 19.2595 16.618 19.2927 16.8001 19.283C18.2231 19.283 19.3171 17.783 19.3171 15.625C19.3308 15.1861 19.2529 14.7491 19.0882 14.3421C18.9235 13.935 18.6756 13.5668 18.3606 13.2609C18.0455 12.955 17.67 12.7183 17.2583 12.5657C16.8465 12.4132 16.4074 12.3482 15.9691 12.375C15.5009 12.3536 15.0333 12.4275 14.5945 12.5922C14.1557 12.7569 13.7549 13.009 13.4165 13.3331C13.078 13.6573 12.8089 14.0468 12.6254 14.4781C12.4419 14.9093 12.3479 15.3733 12.3491 15.842C12.3505 16.4965 12.558 17.134 12.9421 17.664C12.9712 17.694 12.9919 17.7312 13.002 17.7717C13.0122 17.8123 13.0115 17.8548 13.0001 17.895C12.9411 18.145 12.8001 18.695 12.7761 18.803C12.7431 18.948 12.6571 18.981 12.5061 18.908C11.992 18.5739 11.5723 18.1134 11.2872 17.5706C11.0022 17.0278 10.8613 16.4209 10.8781 15.808C10.8781 13.288 12.7101 10.972 16.1701 10.972C16.7997 10.9411 17.4291 11.0371 18.0208 11.2544C18.6125 11.4717 19.1545 11.8058 19.6145 12.2369C20.0745 12.6679 20.443 13.1871 20.6982 13.7635C20.9534 14.3399 21.0901 14.9617 21.1001 15.592C21.1001 18.349 19.3601 20.566 16.9481 20.566C16.5899 20.5791 16.2341 20.5016 15.9139 20.3406C15.5936 20.1796 15.3192 19.9403 15.1161 19.645L14.6161 21.545C14.3782 22.2866 14.0419 22.9929 13.6161 23.645C14.7149 23.9837 15.8738 24.0815 17.0139 23.9319C18.154 23.7822 19.2484 23.3885 20.2225 22.7777C21.1967 22.1668 22.0277 21.3531 22.659 20.3921C23.2903 19.431 23.707 18.3452 23.8807 17.2085C24.0544 16.0719 23.9811 14.9111 23.6656 13.8054C23.3502 12.6997 22.8001 11.6749 22.0529 10.801C21.3056 9.92706 20.3788 9.22447 19.3355 8.74111C18.2922 8.25775 17.1569 8.00498 16.0071 8.00001Z" fill="white"/>
</svg>
