<svg width="40" height="40" viewBox="0 0 40 40" fill="none" xmlns="http://www.w3.org/2000/svg">
<path d="M38.4375 39.9999C37.5745 39.9999 36.875 39.3004 36.875 38.4374C36.875 35.3358 34.3683 32.8124 31.2871 32.8124H29.963C26.8817 32.8124 24.375 35.3358 24.375 38.4374C24.375 39.3004 23.6755 39.9999 22.8125 39.9999C21.9495 39.9999 21.25 39.3004 21.25 38.4374C21.25 33.6127 25.1586 29.6874 29.9629 29.6874H31.287C36.0914 29.6874 40 33.6127 40 38.4374C40 39.3004 39.3005 39.9999 38.4375 39.9999ZM37.1875 20.7031C37.1875 17.0414 34.2085 14.0624 30.5469 14.0624C26.8852 14.0624 23.9062 17.0414 23.9062 20.7031C23.9062 24.3647 26.8852 27.3437 30.5469 27.3437C34.2085 27.3437 37.1875 24.3647 37.1875 20.7031ZM34.0625 20.7031C34.0625 22.6416 32.4854 24.2187 30.5469 24.2187C28.6084 24.2187 27.0312 22.6416 27.0312 20.7031C27.0312 18.7646 28.6084 17.1874 30.5469 17.1874C32.4854 17.1874 34.0625 18.7646 34.0625 20.7031ZM18.125 38.4374C18.125 37.5745 17.4255 36.8749 16.5625 36.8749H9.37336C5.92805 36.8749 3.125 34.0719 3.125 30.6266V9.37331C3.125 5.92799 5.92805 3.12495 9.37336 3.12495H23.7532C27.1986 3.12495 30.0016 5.92799 30.0016 9.37331C30.0016 10.2363 30.7011 10.9358 31.5641 10.9358C32.427 10.9358 33.1266 10.2363 33.1266 9.37331C33.1266 4.20487 28.9217 -5.34058e-05 23.7516 -5.34058e-05H9.37336C4.20492 -5.34058e-05 0 4.20487 0 9.37331V30.6265C0 35.795 4.20492 39.9999 9.37336 39.9999H16.5625C17.4255 39.9999 18.125 39.3004 18.125 38.4374ZM20.7031 17.7343C20.7031 16.8714 20.0036 16.1718 19.1406 16.1718H10.7031C9.84016 16.1718 9.14062 16.8714 9.14062 17.7343C9.14062 18.5973 9.84016 19.2968 10.7031 19.2968H19.1406C20.0036 19.2968 20.7031 18.5973 20.7031 17.7343ZM23.8281 11.7187C23.8281 10.8557 23.1286 10.1562 22.2656 10.1562H10.7031C9.84016 10.1562 9.14062 10.8557 9.14062 11.7187C9.14062 12.5817 9.84016 13.2812 10.7031 13.2812H22.2656C23.1286 13.2812 23.8281 12.5817 23.8281 11.7187ZM20.7031 29.6874C20.7031 28.8245 20.0036 28.1249 19.1406 28.1249H10.7031C9.84016 28.1249 9.14062 28.8245 9.14062 29.6874C9.14062 30.5504 9.84016 31.2499 10.7031 31.2499H19.1406C20.0036 31.2499 20.7031 30.5504 20.7031 29.6874ZM20.7031 23.6718C20.7031 22.8089 20.0036 22.1093 19.1406 22.1093H10.7031C9.84016 22.1093 9.14062 22.8089 9.14062 23.6718C9.14062 24.5348 9.84016 25.2343 10.7031 25.2343H19.1406C20.0036 25.2343 20.7031 24.5348 20.7031 23.6718Z" fill="#ffffff"/>
</svg>
