<svg xmlns="http://www.w3.org/2000/svg" width="23.597" height="20" viewBox="0 0 23.597 20"><g transform="translate(-217.122 -306.617)"><g transform="translate(217.122 306.617)"><path d="M238.644,312.916q-.217-.3-.445-.59c.583-.642,1.731-2.188.953-3.73-.871-1.728-3.665-2.435-4.7-1.676a3.9,3.9,0,0,0-1.336,1.793,13.626,13.626,0,0,0-8.387,0,3.893,3.893,0,0,0-1.336-1.793c-1.036-.759-3.831-.052-4.7,1.676-.779,1.542.369,3.087.953,3.73q-.228.285-.445.589a9.7,9.7,0,0,0-1.857,7.8,6.585,6.585,0,0,0,3.712,4.332,18.714,18.714,0,0,0,7.861,1.566h.013a18.716,18.716,0,0,0,7.86-1.566,6.585,6.585,0,0,0,3.712-4.332A9.7,9.7,0,0,0,238.644,312.916Zm.872,7.551a5.529,5.529,0,0,1-3.17,3.668,19.549,19.549,0,0,1-14.85,0,5.529,5.529,0,0,1-3.17-3.668,8.807,8.807,0,0,1,1.7-6.962,11.134,11.134,0,0,1,17.791,0A8.807,8.807,0,0,1,239.515,320.467Z" transform="translate(-217.122 -306.617)" fill="#dc000c"/><path d="M291.271,396.741c0,.518-.587.93-1.3.93s-1.311-.412-1.311-.93.586-.936,1.311-.936,1.3.418,1.3.936" transform="translate(-278.165 -382.724)" fill="#dc000c"/><path d="M277.6,409.661a3.972,3.972,0,0,1-3.36-1.695.483.483,0,1,1,.824-.5,3.224,3.224,0,0,0,5.073,0,.483.483,0,0,1,.822.507A3.971,3.971,0,0,1,277.6,409.661Z" transform="translate(-265.802 -392.473)" fill="#dc000c"/><g transform="translate(4.009 7.01)"><path d="M249.959,354.587a3.02,3.02,0,0,0-.628-.186,3.7,3.7,0,0,0-.572.048,6.206,6.206,0,0,0-2.113,1.049,10.436,10.436,0,0,0-1.172.957,3.022,3.022,0,0,0-.984,2.866,2.08,2.08,0,0,0,1.045,1.364,1.843,1.843,0,0,0,1.643.129,5.1,5.1,0,0,0,1.707-1.558,14.829,14.829,0,0,0,1.58-1.661A2.054,2.054,0,0,0,249.959,354.587Zm-1.265,3.528a.448.448,0,1,1,0-.9.448.448,0,1,1,0,.9Z" transform="translate(-244.428 -354.401)" fill="#dc000c"/><path d="M312.035,356.455a10.413,10.413,0,0,0-1.172-.957,6.2,6.2,0,0,0-2.114-1.049,3.688,3.688,0,0,0-.571-.048,3.017,3.017,0,0,0-.629.186,2.054,2.054,0,0,0-.506,3.008,14.844,14.844,0,0,0,1.58,1.661,5.091,5.091,0,0,0,1.708,1.558,1.842,1.842,0,0,0,1.643-.129,2.082,2.082,0,0,0,1.045-1.364A3.023,3.023,0,0,0,312.035,356.455Zm-3.22,1.66a.448.448,0,1,1,.45-.448A.445.445,0,0,1,308.815,358.115Z" transform="translate(-297.503 -354.401)" fill="#dc000c"/></g></g></g></svg>