<svg xmlns="http://www.w3.org/2000/svg" width="32" height="32" viewBox="0 0 32 32"><g transform="translate(593 -154)"><circle cx="16" cy="16" r="16" transform="translate(-593 154)" fill="#b2b2b2"/><path d="M8.007,0A7.994,7.994,0,0,0,5.087,15.441a7.683,7.683,0,0,1,.026-2.3c.145-.625.936-3.974.936-3.974a2.908,2.908,0,0,1-.237-1.184c0-1.112.646-1.941,1.45-1.941A1,1,0,0,1,8.277,7.171a15.783,15.783,0,0,1-.666,2.664A1.163,1.163,0,0,0,8.8,11.283c1.423,0,2.517-1.5,2.517-3.658a3.157,3.157,0,0,0-3.348-3.25A3.462,3.462,0,0,0,4.349,7.842a3.117,3.117,0,0,0,.593,1.822A.238.238,0,0,1,5,9.895c-.059.25-.2.8-.224.908-.033.145-.119.178-.27.105a3.58,3.58,0,0,1-1.628-3.1c0-2.52,1.832-4.836,5.292-4.836A4.7,4.7,0,0,1,13.1,7.592c0,2.757-1.74,4.974-4.152,4.974a2.129,2.129,0,0,1-1.832-.921l-.5,1.9a8.7,8.7,0,0,1-1,2.1A8,8,0,1,0,8.007,0Z" transform="translate(-585 162)" fill="#fff"/></g></svg>