<svg width="40" height="40" viewBox="0 0 40 40" fill="none" xmlns="http://www.w3.org/2000/svg">
<path d="M16.0938 40H9.375C4.20563 40 0 35.7944 0 30.625V9.375C0 4.20563 4.20563 0 9.375 0H30.625C35.7944 0 40 4.20563 40 9.375V17.1875C40 18.0505 39.3005 18.75 38.4375 18.75C37.5745 18.75 36.875 18.0505 36.875 17.1875V9.375C36.875 5.92875 34.0712 3.125 30.625 3.125H9.375C5.92875 3.125 3.125 5.92875 3.125 9.375V30.625C3.125 34.0712 5.92875 36.875 9.375 36.875H16.0938C16.9567 36.875 17.6562 37.5745 17.6562 38.4375C17.6562 39.3005 16.9567 40 16.0938 40ZM18.2031 10.9375C18.2031 8.35281 16.1003 6.25 13.5156 6.25C10.9309 6.25 8.82812 8.35281 8.82812 10.9375C8.82812 13.5222 10.9309 15.625 13.5156 15.625C16.1003 15.625 18.2031 13.5222 18.2031 10.9375ZM15.0781 10.9375C15.0781 11.7991 14.3772 12.5 13.5156 12.5C12.6541 12.5 11.9531 11.7991 11.9531 10.9375C11.9531 10.0759 12.6541 9.375 13.5156 9.375C14.3772 9.375 15.0781 10.0759 15.0781 10.9375ZM33.75 15.1562C33.75 14.2933 33.0505 13.5938 32.1875 13.5938H22.5C21.637 13.5938 20.9375 14.2933 20.9375 15.1562C20.9375 16.0192 21.637 16.7188 22.5 16.7188H32.1875C33.0505 16.7188 33.75 16.0192 33.75 15.1562ZM22.1875 26.0938C22.1875 25.2308 21.488 24.5312 20.625 24.5312H9.21875C8.35578 24.5312 7.65625 25.2308 7.65625 26.0938C7.65625 26.9567 8.35578 27.6562 9.21875 27.6562H20.625C21.488 27.6562 22.1875 26.9567 22.1875 26.0938ZM15.9375 31.5625C15.9375 30.6995 15.238 30 14.375 30H9.21875C8.35578 30 7.65625 30.6995 7.65625 31.5625C7.65625 32.4255 8.35578 33.125 9.21875 33.125H14.375C15.238 33.125 15.9375 32.4255 15.9375 31.5625ZM22.65 39.9697L27.0769 39.0848C29.2721 38.6461 31.2692 37.5774 32.8523 35.9944L38.3295 30.5171C39.4067 29.4399 40 28.0077 40 26.4844C40 24.961 39.4068 23.5288 38.3296 22.4516C37.2524 21.3745 35.8202 20.7812 34.2969 20.7812C32.7735 20.7812 31.3413 21.3745 30.2641 22.4516L24.7869 27.9289C23.2038 29.512 22.1352 31.5091 21.6964 33.7044L20.8116 38.1312C20.7091 38.6435 20.8695 39.173 21.2389 39.5424C21.5348 39.8383 21.9334 40 22.3438 40C22.4455 40 22.5481 39.9901 22.65 39.9697ZM36.1198 24.6614C36.6068 25.1483 36.875 25.7958 36.875 26.4844C36.875 27.173 36.6068 27.8205 36.1198 28.3073L30.6426 33.7846C29.4973 34.9299 28.0526 35.703 26.4645 36.0204L24.3353 36.4459L24.7609 34.3168C25.0783 32.7287 25.8513 31.2839 26.9966 30.1387L32.4739 24.6613C32.9608 24.1745 33.6083 23.9062 34.2969 23.9062C34.9855 23.9062 35.633 24.1745 36.1198 24.6614V24.6614ZM32.1875 11.25H22.5C21.637 11.25 20.9375 10.5505 20.9375 9.6875C20.9375 8.82453 21.637 8.125 22.5 8.125H32.1875C33.0505 8.125 33.75 8.82453 33.75 9.6875C33.75 10.5505 33.0505 11.25 32.1875 11.25ZM18.8118 21.3642C19.3927 20.726 19.3462 19.7378 18.708 19.157C17.4234 17.9877 15.7555 17.3438 14.0117 17.3438H13.0195C11.2758 17.3438 9.60789 17.9877 8.32328 19.157C7.68508 19.7378 7.63859 20.726 8.21945 21.3642C8.80023 22.0023 9.78852 22.0489 10.4267 21.468C11.1348 20.8237 12.0556 20.4688 13.0195 20.4688H14.0116C14.9756 20.4688 15.8965 20.8237 16.6045 21.468C16.9039 21.7405 17.2803 21.875 17.6557 21.875C18.0804 21.875 18.5035 21.703 18.8118 21.3642V21.3642Z" fill="white"/>
</svg>
