<svg width="40" height="40" viewBox="0 0 40 40" fill="none" xmlns="http://www.w3.org/2000/svg">
<path d="M32.3438 29.4531C29.5437 29.4531 27.2656 27.1751 27.2656 24.375C27.2656 21.5749 29.5437 19.2969 32.3438 19.2969C35.1438 19.2969 37.4219 21.5749 37.4219 24.375C37.4219 27.1751 35.1438 29.4531 32.3438 29.4531ZM32.3438 22.4219C31.2668 22.4219 30.3906 23.298 30.3906 24.375C30.3906 25.452 31.2668 26.3281 32.3438 26.3281C33.4207 26.3281 34.2969 25.452 34.2969 24.375C34.2969 23.298 33.4207 22.4219 32.3438 22.4219ZM19.5312 30.3125C16.7312 30.3125 14.4531 28.0345 14.4531 25.2344C14.4531 22.4343 16.7312 20.1562 19.5312 20.1562C22.3313 20.1562 24.6094 22.4343 24.6094 25.2344C24.6094 28.0345 22.3313 30.3125 19.5312 30.3125ZM19.5312 23.2812C18.4543 23.2812 17.5781 24.1574 17.5781 25.2344C17.5781 26.3113 18.4543 27.1875 19.5312 27.1875C20.6082 27.1875 21.4844 26.3113 21.4844 25.2344C21.4844 24.1574 20.6082 23.2812 19.5312 23.2812ZM15.4688 38.4375C15.4688 36.7574 16.8528 35.3906 18.554 35.3906H21.25C22.113 35.3906 22.8125 34.6911 22.8125 33.8281C22.8125 32.9652 22.113 32.2656 21.25 32.2656H18.554C15.1296 32.2656 12.3438 35.0343 12.3438 38.4375C12.3438 39.3005 13.0433 40 13.9062 40C14.7692 40 15.4688 39.3005 15.4688 38.4375ZM6.875 30.3125C4.07492 30.3125 1.79688 28.0345 1.79688 25.2344C1.79688 22.4343 4.07492 20.1562 6.875 20.1562C9.67508 20.1562 11.9531 22.4343 11.9531 25.2344C11.9531 28.0345 9.67508 30.3125 6.875 30.3125ZM6.875 23.2812C5.79805 23.2812 4.92188 24.1574 4.92188 25.2344C4.92188 26.3113 5.79805 27.1875 6.875 27.1875C7.95195 27.1875 8.82812 26.3113 8.82812 25.2344C8.82812 24.1574 7.95195 23.2812 6.875 23.2812ZM3.125 38.4375C3.125 36.7574 4.50906 35.3906 6.21023 35.3906H9.375C10.238 35.3906 10.9375 34.6911 10.9375 33.8281C10.9375 32.9652 10.238 32.2656 9.375 32.2656H6.21023C2.78586 32.2656 0 35.0343 0 38.4375C0 39.3005 0.699531 40 1.5625 40C2.42547 40 3.125 39.3005 3.125 38.4375ZM27.5785 17.3438C27.1718 17.3438 26.7723 17.185 26.4733 16.8861L26.332 16.7448C25.5716 15.9845 24.4159 15.7946 23.4557 16.2726C22.0281 16.9834 20.4858 17.3437 18.8715 17.3437C18.8698 17.3437 18.8681 17.3437 18.8666 17.3437H8.67188C3.89016 17.3438 0 13.4536 0 8.67188C0 3.89016 3.89016 0 8.67188 0H20.4688C25.2505 0 29.1406 3.89016 29.1406 8.67188V15.7812C29.1406 16.4132 28.7599 16.983 28.176 17.2248C27.9828 17.3048 27.7797 17.3438 27.5785 17.3438ZM8.67188 3.125C5.61336 3.125 3.125 5.61336 3.125 8.67188C3.125 11.7304 5.61336 14.2188 8.67188 14.2188H18.8672H18.8707C19.9982 14.2188 21.0718 13.9686 22.0628 13.4752C23.3189 12.8498 24.7236 12.7311 26.0156 13.0762V8.67188C26.0156 5.61336 23.5273 3.125 20.4688 3.125H8.67188ZM38.4375 40C37.5745 40 36.875 39.3005 36.875 38.4375C36.875 36.1591 35.0098 34.3055 32.7172 34.3055H31.6578C29.3652 34.3055 27.5 36.1591 27.5 38.4375C27.5 39.3005 26.8005 40 25.9375 40C25.0745 40 24.375 39.3005 24.375 38.4375C24.375 34.436 27.642 31.1805 31.6578 31.1805H32.7173C36.733 31.1805 40.0001 34.436 40.0001 38.4375C40 39.3005 39.3005 40 38.4375 40ZM6.25 8.67188C6.25 9.75055 7.12445 10.625 8.20312 10.625C9.2818 10.625 10.1562 9.75055 10.1562 8.67188C10.1562 7.5932 9.2818 6.71875 8.20312 6.71875C7.12445 6.71875 6.25 7.5932 6.25 8.67188ZM12.5 8.67188C12.5 9.75055 13.3745 10.625 14.4531 10.625C15.5318 10.625 16.4062 9.75055 16.4062 8.67188C16.4062 7.5932 15.5318 6.71875 14.4531 6.71875C13.3745 6.71875 12.5 7.5932 12.5 8.67188ZM18.75 8.67188C18.75 9.75055 19.6245 10.625 20.7031 10.625C21.7818 10.625 22.6562 9.75055 22.6562 8.67188C22.6562 7.5932 21.7818 6.71875 20.7031 6.71875C19.6245 6.71875 18.75 7.5932 18.75 8.67188Z" fill="#888888"/>
</svg>
