<svg width="32" height="32" viewBox="0 0 32 32" fill="none" xmlns="http://www.w3.org/2000/svg">
<path d="M16 32C24.8366 32 32 24.8366 32 16C32 7.16344 24.8366 0 16 0C7.16344 0 0 7.16344 0 16C0 24.8366 7.16344 32 16 32Z" fill="#B2B2B2"/>
<path d="M9.24501 13.9711H12.325V23.9711H9.24501V13.9711ZM10.786 9.00005C11.1426 8.99728 11.492 9.10049 11.7898 9.29658C12.0877 9.49267 12.3206 9.77282 12.4589 10.1015C12.5973 10.4301 12.635 10.7925 12.5671 11.1426C12.4993 11.4926 12.3289 11.8147 12.0778 12.0678C11.8266 12.321 11.5059 12.4938 11.1564 12.5644C10.8068 12.635 10.4442 12.6002 10.1145 12.4643C9.78474 12.3285 9.50278 12.0978 9.30437 11.8015C9.10596 11.5052 9.00002 11.1567 9.00001 10.8001C8.99842 10.3246 9.18563 9.86796 9.52051 9.53045C9.85539 9.19294 10.3106 9.00217 10.786 9.00005Z" fill="white"/>
<path d="M14.408 14.0701H17.358V15.4241H17.4C17.6949 14.9195 18.121 14.5043 18.633 14.2226C19.1451 13.9409 19.7239 13.8031 20.308 13.8241C23.423 13.8241 23.999 15.8741 23.999 18.5411V23.9721H20.922V19.1541C20.922 18.0061 20.902 16.5281 19.322 16.5281C17.722 16.5281 17.476 17.7801 17.476 19.0721V23.9721H14.408V14.0701Z" fill="white"/>
</svg>
