<svg width="24" height="24" viewBox="0 0 24 24" fill="none" xmlns="http://www.w3.org/2000/svg">
<path fill-rule="evenodd" clip-rule="evenodd" d="M18.5 8.61017L13.5639 3.5L6.5 3.5L6.5 20.5L18.5 20.5L18.5 8.61017ZM21 8.40812C21 7.88968 20.7987 7.3915 20.4385 7.01862L15.2146 1.6105C14.8377 1.22034 14.3186 1 13.7761 1L6 1C4.89543 1 4 1.89543 4 3L4 21C4 22.1046 4.89543 23 6 23L19 23C20.1046 23 21 22.1046 21 21L21 8.40812ZM8.19213 15.6008L16.1921 15.6008L16.1921 17.6008L8.19213 17.6008V15.6008ZM13.1921 11.4803L8.19213 11.4803V13.4803L13.1921 13.4803V11.4803Z" fill="#999999"/>
</svg>
