<svg width="32" height="32" viewBox="0 0 32 32" fill="none" xmlns="http://www.w3.org/2000/svg">
<path d="M16 32C24.8366 32 32 24.8366 32 16C32 7.16344 24.8366 0 16 0C7.16344 0 0 7.16344 0 16C0 24.8366 7.16344 32 16 32Z" fill="#B2B2B2"/>
<path d="M24.622 11.984C24.5187 11.6 24.3167 11.2496 24.036 10.9679C23.7553 10.6861 23.4057 10.4828 23.022 10.378C20.6922 10.0978 18.3464 9.97151 16 10C13.6489 9.97153 11.2985 10.0978 8.96401 10.378C8.57955 10.4812 8.22913 10.684 7.94819 10.966C7.66725 11.248 7.46573 11.5992 7.36401 11.984C7.11137 13.4224 6.98954 14.8807 7.00001 16.341C6.99043 17.8026 7.11698 19.2619 7.37801 20.7C7.4813 21.0841 7.68335 21.4344 7.96405 21.7162C8.24475 21.998 8.59433 22.2013 8.97801 22.306C11.3079 22.5856 13.6536 22.7112 16 22.682C18.3511 22.7105 20.7015 22.5843 23.036 22.304C23.4205 22.2009 23.7709 21.9981 24.0518 21.7161C24.3328 21.4341 24.5343 21.0829 24.636 20.698C24.8887 19.2597 25.0105 17.8014 25 16.341C25.0095 14.8801 24.8829 13.4215 24.622 11.984ZM14.159 19.02V13.661L18.859 16.341L14.159 19.02Z" fill="white"/>
</svg>
