<svg width="40" height="40" viewBox="0 0 40 40" fill="none" xmlns="http://www.w3.org/2000/svg">
<g clip-path="url(#clip0)">
<path d="M30.625 40.0002H9.375C4.20563 40.0002 0 35.7946 0 30.6252V17.4791C0 14.5736 1.3793 11.7869 3.68953 10.0248L14.3145 1.92101C16.9892 -0.119071 20.5731 -0.568915 23.6677 0.74671C24.4618 1.08429 24.8319 2.00179 24.4942 2.79593C24.1566 3.58999 23.2391 3.96007 22.4449 3.62249C20.3822 2.74538 17.993 3.04554 16.2097 4.40569L5.58469 12.5095C4.04453 13.6843 3.125 15.542 3.125 17.4791V30.6252C3.125 34.0715 5.92875 36.8752 9.375 36.8752H30.625C34.0713 36.8752 36.875 34.0715 36.875 30.6252V23.6721C36.875 22.8091 37.5745 22.1096 38.4375 22.1096C39.3005 22.1096 40 22.8091 40 23.6721V30.6252C40 35.7946 35.7944 40.0002 30.625 40.0002ZM22.062 28.8337C22.9038 28.6441 23.4326 27.808 23.2431 26.9662C23.0536 26.1243 22.2173 25.5955 21.3755 25.785C19.5664 26.1925 17.6834 25.7814 16.2079 24.656L8.75828 18.9909C8.07141 18.4685 7.09109 18.6019 6.56875 19.2888C6.04641 19.9757 6.17977 20.956 6.86664 21.4783L14.3145 27.142C15.9659 28.4015 17.9593 29.0641 19.9934 29.0641C20.6821 29.0641 21.3757 28.9881 22.062 28.8337ZM39.9996 15.0912C40.0238 12.3105 38.9651 9.6971 37.0178 7.73108C35.0741 5.76851 32.4707 4.68773 29.6875 4.68773C26.9231 4.68773 24.3235 5.77538 22.3675 7.7503C20.4115 9.72507 19.3489 12.3357 19.3755 15.1012C19.4019 17.8451 20.4855 20.4144 22.4269 22.3358C24.367 24.2557 26.945 25.3128 29.6875 25.3127H29.6924C31.1701 25.312 32.5734 25.0503 33.7505 24.5557C34.5461 24.2215 34.9201 23.3055 34.5858 22.5099C34.2515 21.7143 33.3355 21.3402 32.54 21.6747C31.7423 22.0098 30.7571 22.1873 29.691 22.1877C29.6898 22.1877 29.6889 22.1877 29.6877 22.1877C25.7621 22.1877 22.5382 18.9959 22.5005 15.0712C22.482 13.146 23.2233 11.3271 24.5879 9.94929C25.9526 8.57148 27.7637 7.81265 29.6877 7.81265C31.6305 7.81265 33.4453 8.5646 34.7977 9.93007C36.1558 11.3013 36.8934 13.1271 36.8748 15.0712C36.8747 15.0773 36.8751 15.2778 36.8751 15.2778C36.8751 15.9743 36.3093 16.5627 35.6397 16.5627C34.966 16.5627 34.3751 15.9623 34.3751 15.2778C34.3751 15.2465 34.3751 15.0622 34.3751 15.0002C34.3751 12.4155 32.2723 10.3127 29.6876 10.3127C27.1029 10.3127 25.0001 12.4155 25.0001 15.0002C25.0001 17.5849 27.1029 19.6877 29.6876 19.6877C30.8475 19.6877 31.9096 19.2633 32.729 18.5627C33.5373 19.2896 34.5608 19.6877 35.6397 19.6877C38.044 19.6877 40.0001 17.7094 40.0001 15.2744L39.9996 15.0912ZM29.6875 16.5627C28.8259 16.5627 28.125 15.8618 28.125 15.0002C28.125 14.1387 28.8259 13.4377 29.6875 13.4377C30.5491 13.4377 31.25 14.1387 31.25 15.0002C31.25 15.8618 30.5491 16.5627 29.6875 16.5627Z" fill="#EE1C26"/>
</g>
<defs>
<clipPath id="clip0">
<rect width="40" height="40" fill="white"/>
</clipPath>
</defs>
</svg>
