<svg width="32" height="32" viewBox="0 0 32 32" fill="none" xmlns="http://www.w3.org/2000/svg">
<g id="32 / ico_face">
<path id="Vector" d="M16 32C24.8366 32 32 24.8366 32 16C32 7.16344 24.8366 0 16 0C7.16344 0 0 7.16344 0 16C0 24.8366 7.16344 32 16 32Z" fill="#B2B2B2"/>
<g id="Group">
<path id="Vector_2" d="M16 8C11.5817 8 8 11.5817 8 16C8 20.4183 11.5817 24 16 24C20.4183 24 24 20.4183 24 16C24 11.5817 20.4183 8 16 8ZM19.052 12.0741L17.9455 12.0746C17.0779 12.0746 16.9101 12.4869 16.9101 13.0918V14.4259H18.9792L18.9782 16.5153H16.9102V21.8772H14.7521V16.5153H12.948V14.4259H14.7521V12.885C14.7521 11.0967 15.8447 10.1228 17.4398 10.1228L19.0522 10.1253V12.0741H19.052Z" fill="white"/>
</g>
</g>
</svg>
