<svg width="120" height="85" viewBox="0 0 120 85" fill="none" xmlns="http://www.w3.org/2000/svg">
<rect width="120" height="85" fill="white"/>
<g clip-path="url(#clip0)">
<path d="M9.85062 3V4.43993H5.7913V6.47906H8.89456V7.79889H5.7913V10.0796H9.97012V11.5195H4V3H9.85062Z" fill="#EE1C26"/>
<path d="M11.1632 6.23999C11.4707 5.79446 11.8813 5.43065 12.3596 5.17983C12.838 4.92901 13.3698 4.79869 13.9093 4.80006C15.8201 4.80006 16.5358 5.87968 16.5358 7.19951V10.0794C16.5358 10.4397 16.6553 10.5598 17.0139 10.5598H17.2529V11.3992C16.9882 11.5063 16.7016 11.5475 16.4176 11.5193C16.1651 11.5487 15.9093 11.5084 15.6779 11.4026C15.4465 11.2967 15.2482 11.1295 15.1044 10.9188C14.5388 11.4017 13.8159 11.6578 13.074 11.6381C11.7608 11.6381 10.9255 10.9188 10.9255 9.83784C10.9255 8.7569 11.6413 7.6786 14.2691 7.6786H14.864V7.19951C14.864 6.3601 14.5055 5.99978 13.6703 5.99978C13.3551 6.0273 13.0506 6.12836 12.7812 6.29494C12.5117 6.46152 12.2846 6.689 12.118 6.9593L11.1632 6.23999ZM14.864 10.0794V8.75954H14.2678C12.9545 8.75954 12.596 9.23996 12.596 9.71906C12.596 10.3196 12.9545 10.5585 13.5508 10.5585C14.025 10.5269 14.4805 10.3602 14.864 10.078" fill="#EE1C26"/>
<path d="M21.9081 6.36053H20.2363V9.4806C20.2363 10.1999 20.5948 10.4401 21.191 10.4401C21.3981 10.4716 21.6095 10.4291 21.7886 10.32L21.9081 11.2795C21.5024 11.4847 21.0464 11.5681 20.5948 11.5197C19.162 11.5197 18.5645 10.6803 18.5645 9.24039V6.36053L17.6097 6.12032V5.1608L18.5645 5.0407L18.923 3.60077H20.1168V5.1608H21.9081V6.36053Z" fill="#EE1C26"/>
<path d="M36.1677 11.5195H34.2569L32.4669 5.39945L30.7952 11.5195H28.8844L26.3773 3H28.1686L29.8404 9.59914L31.6304 3H33.3022L35.0935 9.71924L36.8835 3H38.6748L36.1677 11.5195Z" fill="#EE1C26"/>
<path d="M40.6051 8.39961V9.00014C40.6051 9.95965 41.0832 10.4401 42.1574 10.4401C42.4842 10.4675 42.8111 10.3892 43.0904 10.2166C43.3697 10.0439 43.5867 9.78601 43.7097 9.48055L44.9035 9.96097C44.6719 10.5156 44.2671 10.9794 43.7502 11.2825C43.2333 11.5856 42.6323 11.7114 42.0379 11.6411C41.6639 11.6945 41.2828 11.6659 40.9208 11.5572C40.5589 11.4485 40.2246 11.2624 39.941 11.0116C39.6574 10.7608 39.4311 10.4513 39.2778 10.1043C39.1245 9.75731 39.0478 9.38108 39.0528 9.00146V7.32C39.0528 5.88006 40.1271 4.80045 42.0379 4.80045C42.4019 4.76922 42.7684 4.81424 43.1142 4.93266C43.46 5.05107 43.7777 5.24031 44.047 5.4884C44.3163 5.73649 44.5315 6.03803 44.6789 6.37397C44.8263 6.70991 44.9028 7.07294 44.9035 7.4401V8.39961H40.6051ZM40.6051 7.5602H43.3512V7.19989C43.3697 7.02199 43.3485 6.84216 43.2891 6.67354C43.2297 6.50492 43.1335 6.35177 43.0077 6.22528C42.8818 6.09879 42.7294 6.00216 42.5616 5.94243C42.3939 5.8827 42.2149 5.8614 42.0379 5.88006C41.8589 5.85098 41.6756 5.86503 41.503 5.92107C41.3304 5.97711 41.1736 6.07353 41.0454 6.2024C40.9171 6.33127 40.8212 6.4889 40.7654 6.66232C40.7097 6.83573 40.6957 7.01998 40.7246 7.19989V7.5602H40.6051Z" fill="#EE1C26"/>
<path d="M48.0765 3H46.4047V11.5195H48.0765V3Z" fill="#EE1C26"/>
<path d="M51.8235 3H50.1517V11.5195H51.8235V3Z" fill="#EE1C26"/>
<path d="M53.7726 10.0793H55.0859V11.0388C55.0859 12.1184 54.8468 12.719 53.7726 12.8391L53.6531 12.1198C54.1311 11.9997 54.2506 11.8796 54.2506 11.4005H53.6531V10.0806L53.7726 10.0793Z" fill="#EE1C26"/>
<path d="M62.2356 3V10.0796H65.9364V11.5195H60.4443V3H62.2356Z" fill="#EE1C26"/>
<path d="M68.8576 11.5195H67.1858V5.15924H68.8576V11.5195ZM68.8576 4.31983H67.4248V3H68.8576V4.31983Z" fill="#EE1C26"/>
<path d="M74.6649 11.5195H72.8736L70.1276 4.92032H72.0384L73.8297 10.1996L75.5015 4.92032H77.4123L74.6649 11.5195Z" fill="#EE1C26"/>
<path d="M79.7671 8.39961V9.00014C79.7671 9.95965 80.2451 10.4401 81.3194 10.4401C81.6462 10.4675 81.9731 10.3892 82.2524 10.2166C82.5316 10.0439 82.7487 9.78601 82.8717 9.48055L84.0654 9.96097C83.8339 10.5156 83.4291 10.9794 82.9122 11.2825C82.3952 11.5856 81.7942 11.7114 81.1999 11.6411C80.8259 11.6945 80.4448 11.6659 80.0828 11.5572C79.7209 11.4485 79.3866 11.2624 79.103 11.0116C78.8194 10.7608 78.5931 10.4513 78.4398 10.1043C78.2865 9.75731 78.2098 9.38108 78.2148 9.00146V7.32C78.2148 5.88006 79.2891 4.80045 81.1999 4.80045C81.5639 4.76922 81.9304 4.81424 82.2762 4.93266C82.622 5.05107 82.9396 5.24031 83.209 5.4884C83.4783 5.73649 83.6935 6.03803 83.8409 6.37397C83.9883 6.70991 84.0648 7.07294 84.0654 7.4401V8.39961H79.7671ZM79.7671 7.5602H82.5132V7.19989C82.5317 7.02199 82.5105 6.84216 82.4511 6.67354C82.3917 6.50492 82.2955 6.35177 82.1697 6.22528C82.0438 6.09879 81.8914 6.00216 81.7236 5.94243C81.5559 5.8827 81.3769 5.8614 81.1999 5.88006C81.0209 5.85098 80.8375 5.86503 80.665 5.92107C80.4924 5.97711 80.3356 6.07353 80.2074 6.2024C80.0791 6.33127 79.9832 6.4889 79.9274 6.66232C79.8717 6.83573 79.8577 7.01998 79.8866 7.19989V7.5602H79.7671Z" fill="#EE1C26"/>
<path d="M98.1975 11.5195H96.2867L94.6162 5.39945L92.9445 11.5195H91.0336L88.5266 3H90.3179L91.9897 9.59914L93.7797 3H95.4515L97.2428 9.71924L98.9133 3H100.705L98.1975 11.5195Z" fill="#EE1C26"/>
<path d="M102.614 8.39961V9.00014C102.614 9.95965 103.092 10.4401 104.166 10.4401C104.493 10.4675 104.82 10.3892 105.099 10.2166C105.379 10.0439 105.596 9.78601 105.719 9.48055L106.913 9.96097C106.681 10.5156 106.276 10.9794 105.759 11.2825C105.242 11.5856 104.641 11.7114 104.047 11.6411C103.673 11.6945 103.292 11.6659 102.93 11.5572C102.568 11.4485 102.234 11.2624 101.95 11.0116C101.666 10.7608 101.44 10.4513 101.287 10.1043C101.134 9.75731 101.057 9.38108 101.062 9.00146V7.32C101.062 5.88006 102.136 4.80045 104.047 4.80045C104.411 4.76922 104.777 4.81424 105.123 4.93266C105.469 5.05107 105.787 5.24031 106.056 5.4884C106.325 5.73649 106.541 6.03803 106.688 6.37397C106.835 6.70991 106.912 7.07294 106.913 7.4401V8.39961H102.614ZM102.614 7.5602H105.36V7.19989C105.379 7.02199 105.358 6.84216 105.298 6.67354C105.239 6.50492 105.143 6.35177 105.017 6.22528C104.891 6.09879 104.738 6.00216 104.571 5.94243C104.403 5.8827 104.224 5.8614 104.047 5.88006C103.868 5.85098 103.685 5.86503 103.512 5.92107C103.339 5.97711 103.183 6.07353 103.054 6.2024C102.926 6.33127 102.83 6.4889 102.774 6.66232C102.719 6.83573 102.705 7.01998 102.734 7.19989V7.5602H102.614Z" fill="#EE1C26"/>
<path d="M109.897 3H108.225V11.5195H109.897V3Z" fill="#EE1C26"/>
<path d="M113.719 3H112.047V11.5195H113.719V3Z" fill="#EE1C26"/>
<path d="M116.941 10.0793H115.628V11.5192H116.941V10.0793Z" fill="#EE1C26"/>
<path d="M33.2268 78.681C33.2268 80.6013 33.1073 81.4407 32.1526 81.801L31.7941 81.9211L32.3916 83.0008H32.6306C33.0725 82.9609 33.5019 82.8321 33.8933 82.622C34.2846 82.4119 34.6298 82.1247 34.9084 81.7776C35.1869 81.4306 35.3931 81.0307 35.5146 80.6019C35.6361 80.173 35.6705 79.724 35.6157 79.2815V71.7215H33.3464V78.681H33.2268Z" fill="#EE1C26"/>
<path d="M39.9774 71.6001H37.7094V80.8389H39.9774V71.6001Z" fill="#EE1C26"/>
<path d="M56.9038 71.4807C56.2702 71.4344 55.6342 71.5278 55.0402 71.7543C54.4463 71.9808 53.9088 72.335 53.4652 72.7921C53.0217 73.2491 52.6828 73.7981 52.4724 74.4005C52.262 75.0029 52.185 75.6442 52.247 76.2796C52.185 76.915 52.262 77.5564 52.4724 78.1588C52.6828 78.7612 53.0217 79.3101 53.4652 79.7672C53.9088 80.2243 54.4463 80.5784 55.0402 80.805C55.6342 81.0315 56.2702 81.1248 56.9038 81.0785C57.5374 81.1248 58.1734 81.0315 58.7674 80.805C59.3613 80.5784 59.8989 80.2243 60.3424 79.7672C60.786 79.3101 61.1248 78.7612 61.3352 78.1588C61.5457 77.5564 61.6226 76.915 61.5607 76.2796C61.6432 75.6401 61.5807 74.99 61.3776 74.3782C61.1746 73.7664 60.8364 73.2088 60.3883 72.7471C59.9403 72.2854 59.3941 71.9316 58.7906 71.7123C58.1871 71.493 57.5421 71.4138 56.9038 71.4807ZM59.1718 76.2796C59.1718 78.3201 58.2171 79.7587 56.9038 79.7587C55.471 79.7587 54.6358 78.3188 54.6358 76.2796C54.6358 74.2405 55.5906 72.8006 56.9038 72.8006C58.3366 72.8006 59.1718 74.2405 59.1718 76.2796Z" fill="#EE1C26"/>
<path d="M79.636 71.4807C79.0024 71.4344 78.3664 71.5278 77.7724 71.7543C77.1785 71.9808 76.6409 72.335 76.1974 72.792C75.7538 73.2491 75.415 73.798 75.2046 74.4004C74.9942 75.0028 74.9172 75.6442 74.9791 76.2796C74.961 76.9056 75.0681 77.5288 75.2939 78.1125C75.5197 78.6961 75.8598 79.2283 76.294 79.6775C76.7281 80.1267 77.2476 80.4838 77.8215 80.7277C78.3954 80.9715 79.0122 81.0972 79.6354 81.0972C80.2585 81.0972 80.8753 80.9715 81.4492 80.7277C82.0231 80.4838 82.5426 80.1267 82.9767 79.6775C83.4109 79.2283 83.751 78.6961 83.9768 78.1125C84.2026 77.5288 84.3097 76.9056 84.2916 76.2796C84.3741 75.6402 84.3115 74.9902 84.1086 74.3786C83.9056 73.7669 83.5675 73.2093 83.1196 72.7476C82.6717 72.2859 82.1257 71.9321 81.5224 71.7127C80.9191 71.4933 80.2742 71.414 79.636 71.4807V71.4807ZM82.0235 76.2796C82.0235 78.3201 81.0688 79.7587 79.7555 79.7587C78.3227 79.7587 77.4875 78.3187 77.4875 76.2796C77.4875 74.2405 78.4422 72.8005 79.7555 72.8005C81.0688 72.8005 82.0235 74.2405 82.0235 76.2796Z" fill="#EE1C26"/>
<path d="M97.4816 71.4807C96.848 71.4344 96.2119 71.5278 95.618 71.7543C95.024 71.9808 94.4865 72.335 94.043 72.792C93.5994 73.2491 93.2606 73.798 93.0502 74.4004C92.8397 75.0028 92.7628 75.6442 92.8247 76.2796C92.8066 76.9056 92.9136 77.5288 93.1395 78.1125C93.3653 78.6961 93.7054 79.2283 94.1395 79.6775C94.5737 80.1267 95.0931 80.4838 95.6671 80.7277C96.241 80.9715 96.8578 81.0972 97.4809 81.0972C98.104 81.0972 98.7208 80.9715 99.2948 80.7277C99.8687 80.4838 100.388 80.1267 100.822 79.6775C101.256 79.2283 101.597 78.6961 101.822 78.1125C102.048 77.5288 102.155 76.9056 102.137 76.2796C102.22 75.6402 102.157 74.9902 101.954 74.3786C101.751 73.7669 101.413 73.2093 100.965 72.7476C100.517 72.2859 99.9712 71.9321 99.3679 71.7127C98.7646 71.4933 98.1197 71.414 97.4816 71.4807V71.4807ZM99.8691 76.2796C99.8691 78.3201 98.9143 79.7587 97.6011 79.7587C96.2878 79.7587 95.3331 78.3187 95.3331 76.2796C95.3331 74.2405 96.2878 72.8005 97.6011 72.8005C98.9143 72.8005 99.8691 74.2405 99.8691 76.2796Z" fill="#EE1C26"/>
<path d="M28.4748 71.6001C28.4748 71.6001 26.3263 74.1197 25.1313 75.5596C24.2278 75.174 23.2442 75.0163 22.2661 75.1C21.2881 75.1837 20.3453 75.5064 19.5197 76.04C17.4893 77.3599 15.8189 81.1992 19.6392 81.1992C21.55 81.1992 23.34 80.4799 25.6093 77.7202L25.8483 77.48C27.0219 78.3284 27.9326 79.4934 28.4748 80.8402H30.7429V71.6014L28.4748 71.6001ZM24.1765 76.6392C23.2923 77.9361 22.1546 79.0385 20.8329 79.8794C18.9221 81.0791 18.3259 78.6797 20.7134 77.1196C21.2188 76.7863 21.7916 76.5703 22.3904 76.4872C22.9892 76.4041 23.5989 76.456 24.1752 76.6392H24.1765ZM26.8017 76.5191C27.3993 75.7998 28.115 74.839 28.4735 74.4787V77.9577C28.005 77.3826 27.439 76.8951 26.8017 76.5178" fill="#EE1C26"/>
<path d="M89.6499 80.8389V73.1602C89.8889 73.1602 91.2022 73.2803 92.1569 73.4004V71.6001H84.7554V73.4004C85.7101 73.2803 87.0234 73.1602 87.2624 73.1602V80.8389H89.6499Z" fill="#EE1C26"/>
<path d="M70.7771 75.5597L68.27 80.9591H67.5543L65.0473 75.5597V75.7999C64.8083 77.4801 64.5693 80.1197 64.5693 81.0792H62.6584C63.017 79.1589 63.8522 73.6394 63.9717 71.8405H65.524L68.1505 77.4801L71.0161 71.8405H72.3293C72.5684 73.6407 72.9269 76.7594 73.6426 81.0792H71.0161C71.0161 80.1197 70.7771 77.4801 70.6576 75.92C70.7218 75.8096 70.7625 75.6869 70.7771 75.5597" fill="#EE1C26"/>
<path d="M48.6538 76.7593C48.7733 76.8794 48.8928 76.9995 48.8928 77.1196V71.6001H50.5646V80.8389H49.2513L44.2372 75.1993C44.1177 75.0792 43.9982 74.9591 43.9982 74.839V80.8389H42.3264V71.6001H43.9982L48.6538 76.7593Z" fill="#EE1C26"/>
<path d="M104.047 79.9997C104.047 79.745 103.947 79.5008 103.767 79.3207C103.588 79.1407 103.345 79.0395 103.092 79.0395C102.838 79.0395 102.595 79.1407 102.416 79.3207C102.237 79.5008 102.136 79.745 102.136 79.9997H102.256C102.253 79.8887 102.273 79.7783 102.314 79.6753C102.355 79.5722 102.416 79.4786 102.494 79.4001C102.573 79.3216 102.666 79.2598 102.768 79.2186C102.871 79.1774 102.981 79.1575 103.091 79.1603C103.306 79.212 103.505 79.3155 103.671 79.4617C103.838 79.6079 103.966 79.7925 104.046 79.9997H104.047Z" fill="#EE1C26"/>
<path d="M103.928 80.0005C103.928 80.2233 103.84 80.437 103.683 80.5945C103.526 80.7521 103.313 80.8406 103.092 80.8406C102.87 80.8406 102.657 80.7521 102.501 80.5945C102.344 80.437 102.256 80.2233 102.256 80.0005H102.136C102.135 80.127 102.158 80.2526 102.205 80.3698C102.253 80.487 102.323 80.5935 102.412 80.6829C102.501 80.7724 102.607 80.843 102.724 80.8906C102.84 80.9382 102.965 80.9618 103.091 80.96C103.214 80.9704 103.338 80.9515 103.452 80.905C103.567 80.8585 103.669 80.7856 103.75 80.6923C103.831 80.5989 103.889 80.4877 103.92 80.3675C103.951 80.2473 103.953 80.1216 103.926 80.0005H103.928Z" fill="#EE1C26"/>
<path d="M102.972 80.12H103.211C103.33 80.12 103.33 80.12 103.33 80.3602V80.6004H103.569V80.3602C103.569 80.12 103.569 80.12 103.45 80.12C103.569 80.12 103.569 79.9999 103.569 79.8798C103.569 79.7597 103.569 79.5195 103.33 79.5195H102.852V80.5991H102.972V79.7597H103.211C103.226 79.7593 103.242 79.7622 103.257 79.7681C103.271 79.774 103.285 79.7829 103.296 79.7941C103.307 79.8053 103.316 79.8187 103.322 79.8334C103.328 79.8482 103.33 79.8639 103.33 79.8798C103.33 79.9999 103.33 79.9999 103.211 79.9999H102.852V80.12H102.972Z" fill="#EE1C26"/>
<path d="M78.4279 32.0483C79.4195 32.0483 80.3889 31.7528 81.2134 31.1992C82.0379 30.6455 82.6806 29.8586 83.0602 28.9379C83.4397 28.0172 83.5391 27.0041 83.3457 26.0266C83.1523 25.0492 82.6749 24.1513 81.9738 23.4465C81.2727 22.7417 80.3794 22.2617 79.4069 22.0671C78.4343 21.8725 77.4262 21.9721 76.51 22.3533C75.5938 22.7345 74.8106 23.3802 74.2595 24.2087C73.7084 25.0372 73.4141 26.0113 73.4138 27.0079C73.4217 28.3419 73.9525 29.619 74.8912 30.5623C75.8298 31.5056 77.1005 32.039 78.4279 32.047" fill="#EE1C26"/>
<path d="M81.9313 50.9019V37.0543C81.9152 36.5838 81.7141 36.139 81.3722 35.8174C81.0302 35.4958 80.5753 35.3235 80.1072 35.3385H76.7005C74.3892 35.3385 72.2 37.4212 68.0658 38.8928V22.4715C68.0587 22.2539 68.0088 22.0399 67.919 21.8419C67.8292 21.6438 67.7012 21.4656 67.5425 21.3175C67.3837 21.1694 67.1974 21.0543 66.9942 20.979C66.791 20.9036 66.575 20.8695 66.3586 20.8785H61.1331C60.7592 20.8995 60.3936 20.9975 60.0588 21.1661C59.7241 21.3348 59.4273 21.5706 59.1868 21.8591L46.2957 36.8088C44.1384 36.0302 41.8897 35.5359 39.6059 35.3385C37.4239 35.0691 35.2095 35.3168 33.1398 36.0616C31.0701 36.8064 29.2026 38.0278 27.6867 39.6279C22.2143 45.7546 26.1108 54.088 33.7685 54.088C38.7589 54.088 42.0421 52.0053 46.9012 46.7352C48.2394 45.2649 49.4555 43.7946 49.4555 43.7946C53.2421 44.9194 57.186 45.416 61.1317 45.2649V52.0053C61.126 52.2322 61.1662 52.4579 61.2499 52.6687C61.3337 52.8795 61.4592 53.0709 61.6189 53.2314C61.7786 53.3919 61.9691 53.5181 62.1789 53.6023C62.3886 53.6864 62.6132 53.7269 62.839 53.7211H66.3664C66.5922 53.7269 66.8168 53.6864 67.0265 53.6023C67.2363 53.5181 67.4268 53.3919 67.5865 53.2314C67.7462 53.0709 67.8717 52.8795 67.9555 52.6687C68.0392 52.4579 68.0795 52.2322 68.0737 52.0053V44.1615C70.5683 43.4031 72.9742 42.376 75.2494 41.0982V55.4355C73.9112 56.2934 70.1408 58.9898 70.1408 58.9898C67.3435 60.9511 68.0737 62.6655 69.4106 63.7689C70.8077 64.9263 72.5954 65.497 74.401 65.3619C78.5365 65.3619 82.0626 61.6862 82.0626 56.0492C88.8732 51.8825 96.9026 46.491 96.5362 39.5052C96.5362 38.3705 96.0877 37.2823 95.2893 36.48C94.491 35.6777 93.4082 35.227 92.2792 35.227C91.1502 35.227 90.0674 35.6777 89.2691 36.48C88.4707 37.2823 88.0222 38.3705 88.0222 39.5052C88.0134 40.1415 88.1511 40.7712 88.4244 41.3452C88.6978 41.9191 89.0995 42.4218 89.5982 42.814C88.2599 45.7546 85.4627 48.3282 81.9365 50.9019H81.9313ZM42.4032 41.4678L39.8489 44.2869C37.7818 46.4924 35.4705 49.4343 33.0383 49.4343C32.5994 49.4364 32.1674 49.3249 31.7839 49.1103C31.4004 48.8958 31.0784 48.5855 30.8491 48.2095C30.4708 47.5044 30.2934 46.7082 30.3363 45.9083C30.3791 45.1085 30.6406 44.336 31.092 43.6758C33.1591 40.7353 36.2006 40.2443 39.4838 40.7353C40.4952 40.7872 41.4869 41.0369 42.4032 41.4704V41.4678ZM61.0122 29.947V39.9962C58.4256 40.025 55.8474 39.6951 53.3506 39.0155L61.0122 29.947Z" fill="#EE1C26"/>
</g>
<defs>
<clipPath id="clip0">
<rect width="112.941" height="80" fill="white" transform="translate(4 3)"/>
</clipPath>
</defs>
</svg>
